<svg width="38" height="32" viewBox="0 0 38 32" fill="none" xmlns="http://www.w3.org/2000/svg">
<path d="M35.0444 32L21.7444 20.8C20.6889 21.5111 19.475 22.0741 18.1028 22.4889C16.7306 22.9037 15.2704 23.1111 13.7222 23.1111C9.88704 23.1111 6.64156 21.9923 3.98578 19.7547C1.33 17.517 0.00140741 14.784 0 11.5556C0 8.32593 1.32859 5.59289 3.98578 3.35644C6.64296 1.12 9.88844 0.00118519 13.7222 0C17.5574 0 20.8029 1.11881 23.4587 3.35644C26.1144 5.59407 27.443 8.32711 27.4444 11.5556C27.4444 12.8593 27.1981 14.0889 26.7056 15.2444C26.213 16.4 25.5444 17.4222 24.7 18.3111L38 29.5111L35.0444 32ZM13.7222 19.5556C16.3611 19.5556 18.6045 18.7775 20.4524 17.2213C22.3004 15.6652 23.2236 13.7766 23.2222 11.5556C23.2222 9.33333 22.2983 7.44415 20.4503 5.888C18.6024 4.33185 16.3597 3.55437 13.7222 3.55556C11.0833 3.55556 8.83993 4.33363 6.992 5.88978C5.14407 7.44593 4.22081 9.33452 4.22222 11.5556C4.22222 13.7778 5.14619 15.667 6.99411 17.2231C8.84204 18.7793 11.0847 19.5567 13.7222 19.5556Z" fill="#02FFA1"/>
</svg>
